<svg xmlns="http://www.w3.org/2000/svg" width="344" height="545" viewBox="0 0 344 545" version="1.1"><path d="M 206.500 1.105 C 198.800 1.551, 190.700 2.377, 188.500 2.942 C 184.946 3.853, 185.281 3.917, 191.500 3.508 C 195.350 3.255, 206.150 2.568, 215.500 1.982 C 224.850 1.395, 233.400 0.770, 234.500 0.594 C 238.360 -0.026, 220.356 0.302, 206.500 1.105 M 237 0.935 C 237 1.728, 242.171 3.147, 242.801 2.527 C 242.967 2.364, 241.729 1.753, 240.051 1.168 C 238.373 0.583, 237 0.478, 237 0.935 M 180.500 4 L 177.500 4.763 180.750 4.882 C 182.537 4.947, 184 4.550, 184 4 C 184 3.450, 183.887 3.053, 183.750 3.118 C 183.613 3.183, 182.150 3.580, 180.500 4 M 246.083 4.283 C 246.313 4.439, 247.400 5.226, 248.500 6.033 C 250.350 7.390, 250.397 7.369, 249.128 5.750 C 248.373 4.787, 247.285 4, 246.711 4 C 246.137 4, 245.854 4.127, 246.083 4.283 M 261.473 16.832 C 265.308 20.774, 268.609 24, 268.807 24 C 269.899 24, 262.283 15.617, 258.703 12.879 C 255.543 10.461, 256.230 11.442, 261.473 16.832 M 123.500 18 C 122.718 19.266, 124.042 19.266, 126 18 C 127.293 17.165, 127.266 17.029, 125.809 17.015 C 124.879 17.007, 123.840 17.450, 123.500 18 M 116.500 21 C 115.718 22.266, 117.042 22.266, 119 21 C 120.293 20.165, 120.266 20.029, 118.809 20.015 C 117.879 20.007, 116.840 20.450, 116.500 21 M 111 24.082 L 108.500 26.120 111.750 24.535 C 113.537 23.662, 115 22.735, 115 22.474 C 115 21.480, 113.407 22.120, 111 24.082 M 270 26.378 C 270 26.585, 270.685 27.324, 271.523 28.019 C 272.796 29.076, 272.943 29.014, 272.416 27.641 C 271.878 26.240, 270 25.257, 270 26.378 M 286 49 C 286.589 50.100, 287.295 51, 287.570 51 C 287.845 51, 287.589 50.100, 287 49 C 286.411 47.900, 285.705 47, 285.430 47 C 285.155 47, 285.411 47.900, 286 49 M 233.750 52.723 C 235.537 52.945, 238.463 52.945, 240.250 52.723 C 242.037 52.502, 240.575 52.320, 237 52.320 C 233.425 52.320, 231.963 52.502, 233.750 52.723 M 288.964 53.836 C 289.623 55.120, 290.436 55.897, 290.771 55.562 C 291.107 55.227, 290.568 54.176, 289.574 53.226 C 287.846 51.576, 287.819 51.603, 288.964 53.836 M 56.473 64.250 L 49.500 71.500 56.750 64.527 C 63.484 58.050, 64.457 57, 63.723 57 C 63.571 57, 60.308 60.263, 56.473 64.250 M 292.964 60.836 C 293.623 62.120, 294.436 62.897, 294.771 62.562 C 295.107 62.227, 294.568 61.176, 293.574 60.226 C 291.846 58.576, 291.819 58.603, 292.964 60.836 M 161 81 C 159.075 82.054, 157.860 82.935, 158.300 82.958 C 159.359 83.014, 165 80.081, 165 79.474 C 165 78.820, 164.941 78.842, 161 81 M 175.010 91.645 C 171.515 100.516, 167.910 106.676, 153.444 128.500 C 146.153 139.500, 136.959 154.125, 133.013 161 C 124.058 176.603, 101.052 222.661, 94.553 237.998 C 79.963 272.432, 72.005 301.634, 72.001 320.750 C 72 329.129, 71.134 330.734, 68.200 327.800 C 67.397 326.997, 67 326.962, 67 327.693 C 67 328.294, 67.724 329.064, 68.609 329.404 C 70.746 330.223, 69.885 335.080, 65.870 344.862 C 60.142 358.819, 59.001 370.734, 63.144 373.322 C 65.619 374.868, 65.520 375.663, 61.889 383.423 C 58.514 390.636, 58.609 388.537, 60.625 411.213 C 60.962 415.001, 60.766 419.233, 60.176 420.925 C 59.148 423.873, 59.180 423.914, 62.065 423.337 L 65 422.750 65 427.792 C 65 437.896, 70.898 446.353, 81.500 451.454 C 85.518 453.387, 86.564 453.578, 86.823 452.430 C 87.001 451.643, 87.593 451, 88.139 451 C 92.118 451, 96.575 457.460, 100.445 468.837 C 103.141 476.764, 108.044 484.731, 113.437 489.946 C 116.727 493.128, 117 493.224, 117 491.196 C 117 489.988, 117.386 489, 117.857 489 C 118.329 489, 122.121 492.352, 126.285 496.448 C 132.401 502.466, 135.741 504.801, 143.677 508.607 C 156.648 514.827, 160.348 517.961, 165.824 527.365 L 170.404 535.231 172.490 532.615 C 175.841 528.413, 177.517 529.231, 178.912 535.750 C 180.890 544.993, 180.894 545, 183.986 545 C 187.660 545, 189.998 544.085, 190.007 542.643 C 190.012 542.014, 192.073 538.913, 194.588 535.750 C 199.355 529.757, 203 528.169, 203 532.084 C 203 533.829, 203.960 533.301, 208.909 528.834 C 212.159 525.900, 218.920 521.284, 223.934 518.575 C 235.218 512.478, 240.300 508.206, 242.342 503.104 C 244.190 498.484, 249.599 492, 251.604 492 C 252.451 492, 253 493.052, 253 494.674 L 253 497.349 255.407 495.087 C 258.842 491.861, 263.564 482.537, 265.431 475.298 C 268.557 463.174, 274.244 453, 277.896 453 C 278.883 453, 280.414 452.200, 281.298 451.223 C 283.833 448.422, 287.846 438.955, 289.918 430.888 C 291.741 423.793, 291.930 423.505, 294.697 423.625 L 297.579 423.749 297.202 417.625 C 296.775 410.679, 298.475 384.410, 299.524 381.750 C 300.611 378.994, 303 379.702, 304.197 383.135 L 305.290 386.270 306.511 383.385 C 308.151 379.511, 308.072 368.898, 306.359 363.157 C 303.214 352.615, 297.670 343.265, 287.836 331.922 C 282.626 325.913, 282.144 324.236, 284.565 320.541 C 286.036 318.296, 286.015 318.183, 284.209 318.656 C 282.393 319.131, 282.257 318.301, 281.694 303.329 C 280.888 281.870, 279.078 274.278, 261.833 220.012 C 253.904 195.062, 251.973 190.095, 246.280 180.012 C 238.703 166.592, 220.337 138.643, 216.151 134.162 C 214.563 132.461, 213.416 130.918, 213.602 130.732 C 214.137 130.197, 195.651 107.367, 187.179 98.100 C 182.956 93.480, 179.009 88.820, 178.409 87.745 C 177.441 86.011, 177.056 86.453, 175.010 91.645 M 307.035 88.550 C 307.055 89.073, 307.749 90.625, 308.577 92 L 310.083 94.500 309.429 92 C 308.747 89.392, 306.971 86.833, 307.035 88.550 M 176.995 93.250 C 176.993 93.938, 174.162 99.450, 170.704 105.500 C 161.770 121.133, 161.635 121.351, 160.231 122.480 C 159.360 123.180, 166.308 123.500, 182.404 123.500 C 203.122 123.500, 205.702 123.326, 204.612 122 C 198.111 114.090, 185.785 99.658, 182.621 96.250 C 178.573 91.890, 177.004 91.053, 176.995 93.250 M 311.031 97.500 C 311.031 98.050, 311.467 99.175, 312 100 C 312.533 100.825, 312.969 101.050, 312.969 100.500 C 312.969 99.950, 312.533 98.825, 312 98 C 311.467 97.175, 311.031 96.950, 311.031 97.500 M 316.583 112 C 317.324 114.785, 317.797 115.536, 318.418 114.915 C 318.648 114.685, 318.179 113.373, 317.376 111.998 L 315.917 109.500 316.583 112 M 23.624 112.539 C 22.659 115.053, 22.943 115.702, 24.122 113.675 C 24.706 112.671, 24.973 111.639, 24.715 111.382 C 24.458 111.124, 23.966 111.645, 23.624 112.539 M 21.624 117.539 C 20.659 120.053, 20.943 120.702, 22.122 118.675 C 22.706 117.671, 22.973 116.639, 22.715 116.382 C 22.458 116.124, 21.966 116.645, 21.624 117.539 M 319.434 120.357 C 321.344 126.416, 325.171 142.997, 326.634 151.543 C 329.214 166.626, 328.975 196.259, 326.121 215 C 322.509 238.717, 317.256 259.392, 310.496 276.500 C 309.947 277.889, 310.028 278.194, 310.760 277.500 C 312.869 275.501, 322.063 245.792, 324.436 233.311 C 331.978 193.642, 331.851 162.867, 324.026 133.201 C 322.386 126.987, 320.551 121.137, 319.947 120.201 C 318.952 118.660, 318.904 118.674, 319.434 120.357 M 159.563 126.952 C 157.333 127.368, 155.572 129.064, 152.246 134 C 149.836 137.575, 147.412 140.376, 146.858 140.225 C 146.304 140.074, 146.092 140.340, 146.386 140.816 C 146.680 141.292, 142.645 148.841, 137.419 157.591 C 126.093 176.554, 105.844 216.597, 97.010 237.500 C 93.524 245.750, 88.309 259.419, 85.421 267.875 C 80.343 282.746, 80.214 283.393, 81.485 287.615 C 83.441 294.116, 87.629 300.671, 91.122 302.702 C 93.365 304.005, 95.260 306.749, 98.010 312.677 C 104.068 325.736, 107.044 329.389, 115.056 333.599 C 120.380 336.396, 123.098 338.645, 126.296 342.894 C 131.343 349.603, 137.100 352.782, 147.037 354.346 C 153.006 355.286, 153.914 355.695, 153.430 357.221 C 152.753 359.354, 154.537 359.519, 160.142 357.839 C 165.389 356.267, 171.363 350.948, 174.001 345.497 C 175.693 342.004, 176.719 341, 178.602 341 C 180.563 341, 181.470 342.002, 183.355 346.250 C 186.341 352.977, 190.254 357.579, 195.086 360.044 C 199.765 362.431, 206.500 362.745, 205.652 360.537 C 205.242 359.468, 206.089 358.913, 208.795 358.477 C 223.675 356.078, 227.183 354.152, 233.500 344.914 C 237.376 339.244, 239.581 337.066, 243.312 335.222 C 248.548 332.635, 252.440 327.457, 257.388 316.500 C 258.878 313.200, 262.300 308.250, 264.994 305.500 C 270.705 299.668, 277.345 287.020, 277.178 282.292 C 276.827 272.409, 253.415 197.252, 247.026 185.500 C 238.667 170.126, 221.161 143.378, 210.047 129 L 208.114 126.500 185.307 126.452 C 172.763 126.425, 161.178 126.650, 159.563 126.952 M 236.500 133 C 237.495 134.100, 238.535 135, 238.810 135 C 239.085 135, 238.495 134.100, 237.500 133 C 236.505 131.900, 235.465 131, 235.190 131 C 234.915 131, 235.505 131.900, 236.500 133 M 246.523 147.500 C 249.635 152.450, 254.559 161.225, 257.465 167 C 266.205 184.369, 270.975 197.308, 279.953 228 L 280.977 231.500 280.398 227.510 C 279.655 222.384, 273.844 203.208, 269.335 191 C 263.140 174.227, 248.042 145.676, 242.366 140 C 241.541 139.175, 243.412 142.550, 246.523 147.500 M 13.373 141.803 C 10.682 143.550, 10.114 147.858, 9.451 171.544 C 8.702 198.251, 9.528 211.317, 13.112 229.500 C 15.398 241.095, 16.002 243.332, 16.666 242.668 C 16.931 242.402, 16.247 237.980, 15.144 232.842 C 11.550 216.101, 10.573 204.273, 11.852 193.022 C 12.484 187.470, 13 175.505, 13 166.432 C 13 154.597, 13.393 148.994, 14.393 146.603 C 15.826 143.172, 15.273 140.569, 13.373 141.803 M 17.168 247.051 C 17.753 248.729, 18.426 249.907, 18.664 249.669 C 19.367 248.966, 17.860 244, 16.944 244 C 16.482 244, 16.583 245.373, 17.168 247.051 M 23.015 264.191 C 23.007 265.121, 23.450 266.160, 24 266.500 C 25.266 267.282, 25.266 265.958, 24 264 C 23.165 262.707, 23.029 262.734, 23.015 264.191 M 25.015 269.191 C 25.007 270.121, 25.450 271.160, 26 271.500 C 27.266 272.282, 27.266 270.958, 26 269 C 25.165 267.707, 25.029 267.734, 25.015 269.191 M 28 275.438 C 28 276.604, 32.994 286.357, 34.177 287.500 C 34.746 288.050, 33.760 285.575, 31.987 282 C 28.594 275.159, 28 274.182, 28 275.438 M 306.695 284.513 C 305.781 286.431, 305.239 288, 305.490 288 C 306.175 288, 309.210 281.877, 308.753 281.420 C 308.536 281.203, 307.610 282.594, 306.695 284.513 M 106.500 289.945 C 101.077 292.165, 98.434 298.865, 100.206 305.902 C 101.799 312.231, 109.275 319.544, 119.128 324.414 C 125.350 327.489, 128.171 328.269, 134.672 328.715 C 146.206 329.506, 157.152 327.083, 169.442 321.018 L 179.384 316.112 189.442 321.065 C 201.594 327.049, 212.056 329.448, 222.959 328.750 C 232.438 328.142, 236.905 326.546, 245.940 320.540 C 255.629 314.099, 258.500 309.681, 258.500 301.213 C 258.500 295.098, 258.329 294.638, 255.038 291.890 C 253.134 290.301, 250.442 289, 249.056 289 C 246.679 289, 246.747 289.144, 250.256 291.528 C 256.234 295.590, 256.473 302.082, 250.800 306.306 C 248.850 307.757, 246.455 308.339, 242.182 308.397 C 236.984 308.467, 235.003 307.851, 225.882 303.324 C 212.040 296.454, 209.204 295.673, 200.018 296.205 C 193.504 296.582, 191.269 297.218, 185.697 300.281 L 179.094 303.911 173.428 300.499 C 166.949 296.598, 161.567 295.520, 152.281 296.266 C 147.018 296.688, 143.625 297.846, 134.632 302.291 C 121.735 308.665, 118.891 309.435, 113.072 308.128 C 102.016 305.644, 100.585 295.651, 110.500 290.167 L 112.500 289.061 110.500 289.094 C 109.400 289.112, 107.600 289.495, 106.500 289.945 M 43.638 303.500 C 43.955 304.325, 44.671 305, 45.229 305 C 45.815 305, 45.718 304.365, 45 303.500 C 44.315 302.675, 43.599 302, 43.409 302 C 43.219 302, 43.322 302.675, 43.638 303.500 M 54.099 316.002 C 56.418 318.753, 59.933 322.194, 61.908 323.648 C 63.933 325.139, 62.239 322.957, 58.025 318.646 C 53.914 314.441, 50.400 311, 50.216 311 C 50.031 311, 51.779 313.251, 54.099 316.002" stroke="none" fill="#05050b" fill-rule="evenodd"/><path d="M 214.762 0.707 C 216.006 0.946, 217.806 0.937, 218.762 0.687 C 219.718 0.437, 218.700 0.241, 216.500 0.252 C 214.300 0.263, 213.518 0.468, 214.762 0.707 M 219 1.709 C 209.375 2.376, 197.567 3.051, 192.760 3.211 C 187.954 3.370, 184.016 3.897, 184.010 4.382 C 184.005 4.867, 182.200 5.022, 180 4.727 C 177.800 4.432, 175.759 4.580, 175.465 5.057 C 175.170 5.534, 173.145 5.747, 170.964 5.530 C 168.784 5.313, 167 5.513, 167 5.974 C 167 6.435, 166.151 6.591, 165.113 6.319 C 164.075 6.048, 162.949 6.273, 162.612 6.819 C 162.274 7.365, 161.149 7.590, 160.112 7.319 C 159.074 7.048, 157.936 7.295, 157.581 7.869 C 157.226 8.443, 156.321 8.677, 155.569 8.388 C 154.817 8.100, 153.917 8.325, 153.569 8.888 C 153.221 9.452, 152.321 9.677, 151.569 9.388 C 150.817 9.100, 149.917 9.325, 149.569 9.888 C 149.221 10.452, 148.321 10.677, 147.569 10.388 C 146.817 10.100, 145.917 10.325, 145.569 10.888 C 145.221 11.452, 144.275 11.659, 143.468 11.349 C 142.661 11.040, 142 11.332, 142 12 C 142 12.668, 141.326 12.955, 140.500 12.638 C 139.675 12.322, 139 12.547, 139 13.138 C 139 13.730, 138.325 13.955, 137.500 13.638 C 136.675 13.322, 136 13.529, 136 14.099 C 136 14.700, 135.108 14.852, 133.875 14.460 C 132.349 13.976, 131.961 14.128, 132.500 15 C 133.045 15.882, 132.635 16.019, 131 15.500 C 129.346 14.975, 128.952 15.114, 129.514 16.023 C 130.010 16.825, 129.793 17.098, 128.898 16.799 C 128.139 16.546, 126.893 16.964, 126.130 17.727 C 125.367 18.490, 124.125 18.878, 123.371 18.589 C 122.617 18.300, 122 18.574, 122 19.198 C 122 19.822, 121.721 20.055, 121.381 19.714 C 121.040 19.374, 120.082 19.775, 119.252 20.605 C 118.422 21.436, 117.125 21.878, 116.371 21.589 C 115.617 21.300, 115 21.487, 115 22.006 C 115 22.524, 113.650 23.647, 112 24.500 C 110.350 25.353, 109 25.797, 109 25.487 C 109 25.176, 108.032 25.824, 106.849 26.926 C 105.665 28.029, 104.315 28.695, 103.849 28.406 C 103.382 28.118, 103 28.359, 103 28.941 C 103 29.523, 102.325 30, 101.500 30 C 100.675 30, 100 30.450, 100 31 C 100 31.550, 99.325 32, 98.500 32 C 97.675 32, 97 32.401, 97 32.892 C 97 33.382, 95.875 34.066, 94.500 34.411 C 93.125 34.756, 92 35.480, 92 36.019 C 92 36.559, 91.325 37, 90.500 37 C 89.675 37, 89 37.450, 89 38 C 89 38.550, 88.305 39, 87.455 39 C 86.605 39, 84.784 40.125, 83.409 41.500 C 82.034 42.875, 80.528 44, 80.062 44 C 79.595 44, 78.944 44.704, 78.614 45.563 C 78.284 46.423, 77.610 46.877, 77.116 46.572 C 76.623 46.267, 75.475 47.153, 74.565 48.540 C 73.656 49.928, 72.531 50.828, 72.065 50.540 C 71.600 50.253, 70.486 51.135, 69.590 52.502 C 68.695 53.869, 67.606 54.878, 67.171 54.744 C 66.736 54.610, 63.773 57.310, 60.587 60.745 C 57.400 64.180, 54.379 66.734, 53.872 66.421 C 53.365 66.108, 53.074 66.447, 53.225 67.176 C 53.376 67.904, 52.904 68.376, 52.176 68.225 C 51.447 68.074, 51.106 68.362, 51.417 68.866 C 51.728 69.369, 50.862 70.516, 49.491 71.414 C 48.121 72.312, 47 73.547, 47 74.158 C 47 74.770, 45.987 76.276, 44.750 77.505 C 41.205 81.025, 38.028 85.385, 38.013 86.750 C 38.006 87.438, 37.550 88, 37 88 C 36.450 88, 36 88.675, 36 89.500 C 36 90.325, 35.523 91, 34.941 91 C 34.359 91, 34.131 91.403, 34.435 91.895 C 34.740 92.388, 34.288 93.059, 33.431 93.388 C 32.574 93.717, 32.153 94.439, 32.496 94.993 C 32.838 95.547, 32.615 96, 32 96 C 31.385 96, 31.160 96.450, 31.500 97 C 31.840 97.550, 31.615 98, 31 98 C 30.385 98, 30.160 98.450, 30.500 99 C 30.840 99.550, 30.615 100, 30 100 C 29.385 100, 29.160 100.450, 29.500 101 C 29.840 101.550, 29.615 102, 29 102 C 28.385 102, 28.160 102.450, 28.500 103 C 28.840 103.550, 28.615 104, 28 104 C 27.385 104, 27.160 104.450, 27.500 105 C 27.840 105.550, 27.615 106, 27 106 C 26.385 106, 26.160 106.450, 26.500 107 C 26.840 107.550, 26.615 108, 26 108 C 25.385 108, 25.160 108.450, 25.500 109 C 25.840 109.550, 25.656 110, 25.090 110 C 24.525 110, 24.300 110.617, 24.589 111.371 C 24.878 112.125, 24.527 113.363, 23.808 114.121 C 23.088 114.879, 22.455 116.063, 22.400 116.750 C 22.165 119.684, 21.942 120.082, 20.893 119.434 C 20.148 118.973, 20.006 119.445, 20.460 120.875 C 20.852 122.108, 20.700 123, 20.099 123 C 19.529 123, 19.322 123.675, 19.638 124.500 C 19.955 125.325, 19.730 126, 19.138 126 C 18.547 126, 18.322 126.675, 18.638 127.500 C 18.955 128.325, 18.730 129, 18.138 129 C 17.546 129, 17.350 129.748, 17.701 130.664 C 18.155 131.847, 17.971 132.100, 17.063 131.539 C 16.117 130.954, 15.960 131.300, 16.460 132.875 C 16.887 134.218, 16.703 135, 15.960 135 C 15.314 135, 15.025 135.623, 15.318 136.385 C 15.610 137.147, 15.130 138.797, 14.252 140.051 C 13.373 141.305, 13.144 142.029, 13.742 141.660 C 15.481 140.585, 15.792 143.224, 14.339 146.718 C 13.405 148.963, 13 154.921, 13 166.432 C 13 175.505, 12.484 187.470, 11.852 193.022 C 10.575 204.256, 11.550 216.100, 15.125 232.755 C 16.217 237.846, 16.858 242.420, 16.549 242.920 C 16.240 243.420, 16.500 244, 17.127 244.209 C 17.754 244.418, 18.319 246.030, 18.383 247.792 C 18.447 249.554, 18.886 250.996, 19.357 250.998 C 19.828 250.999, 19.955 251.675, 19.638 252.500 C 19.322 253.325, 19.529 254, 20.099 254 C 20.700 254, 20.852 254.892, 20.460 256.125 C 19.960 257.700, 20.117 258.046, 21.063 257.461 C 21.971 256.900, 22.155 257.153, 21.701 258.336 C 21.350 259.251, 21.536 260, 22.115 260 C 22.693 260, 22.981 260.558, 22.753 261.241 C 22.525 261.924, 22.958 263.101, 23.714 263.857 C 24.471 264.613, 24.921 265.738, 24.714 266.357 C 24.508 266.976, 24.964 268.107, 25.727 268.870 C 26.490 269.633, 26.878 270.875, 26.589 271.629 C 26.300 272.383, 26.525 273, 27.090 273 C 27.656 273, 27.864 273.412, 27.553 273.915 C 27.242 274.418, 27.384 274.980, 27.869 275.165 C 29.181 275.664, 35.007 287.660, 34.287 288.380 C 33.946 288.721, 34.218 289, 34.892 289 C 35.566 289, 35.869 289.403, 35.565 289.895 C 35.260 290.388, 35.712 291.059, 36.569 291.388 C 37.426 291.717, 37.847 292.439, 37.504 292.993 C 37.162 293.547, 37.385 294, 38 294 C 38.615 294, 38.869 294.403, 38.565 294.895 C 38.260 295.388, 38.712 296.059, 39.569 296.388 C 40.426 296.717, 40.876 297.392, 40.569 297.888 C 40.262 298.384, 40.748 299.073, 41.649 299.419 C 42.549 299.764, 43.016 300.317, 42.686 300.648 C 42.355 300.978, 43.078 302.077, 44.293 303.091 C 45.507 304.104, 46.076 304.948, 45.559 304.967 C 45.041 304.985, 45.491 305.639, 46.559 306.419 C 47.626 307.200, 48.556 308.325, 48.625 308.919 C 48.694 309.514, 48.806 310.525, 48.875 311.167 C 48.944 311.808, 49.313 312.020, 49.696 311.637 C 50.604 310.730, 65 325.024, 65 326.832 C 65 327.636, 65.614 327.978, 66.468 327.651 C 67.275 327.341, 68.202 327.518, 68.527 328.044 C 68.852 328.570, 69.766 329, 70.559 329 C 71.697 329, 72 327.266, 72.001 320.750 C 72.005 301.658, 79.891 272.694, 94.534 237.998 C 105.967 210.908, 143.879 139.189, 146.056 140.535 C 146.392 140.742, 146.667 140.322, 146.667 139.600 C 146.667 138.879, 150.495 132.711, 155.174 125.894 C 165.762 110.469, 171.051 101.391, 174.570 92.601 C 176.985 86.569, 177.434 85.998, 178.403 87.734 C 179.006 88.815, 182.956 93.480, 187.179 98.100 C 195.651 107.367, 214.137 130.197, 213.602 130.732 C 213.416 130.918, 214.563 132.461, 216.151 134.162 C 220.337 138.643, 238.703 166.592, 246.280 180.012 C 251.973 190.095, 253.904 195.062, 261.833 220.012 C 279.063 274.232, 280.888 281.880, 281.691 303.250 C 282.017 311.913, 282.633 319, 283.060 319 C 284.891 319, 286.944 317.719, 286.435 316.895 C 286.131 316.403, 286.385 316, 287 316 C 287.615 316, 287.838 315.547, 287.496 314.993 C 287.153 314.439, 287.574 313.717, 288.431 313.388 C 289.288 313.059, 289.738 312.384, 289.431 311.888 C 289.124 311.392, 289.574 310.717, 290.431 310.388 C 291.288 310.059, 291.757 309.415, 291.473 308.957 C 291.190 308.498, 291.610 307.758, 292.408 307.311 C 293.205 306.865, 293.935 306.050, 294.029 305.500 C 294.123 304.950, 294.605 304.613, 295.100 304.750 C 295.921 304.978, 296.401 303.591, 296.128 301.780 C 296.069 301.384, 296.928 300.574, 298.038 299.980 C 299.148 299.386, 299.790 298.469, 299.465 297.943 C 299.139 297.416, 299.574 296.717, 300.431 296.388 C 301.288 296.059, 301.738 295.384, 301.431 294.888 C 301.124 294.392, 301.574 293.717, 302.431 293.388 C 303.288 293.059, 303.740 292.388, 303.435 291.895 C 303.131 291.403, 303.385 291, 304 291 C 304.615 291, 304.840 290.550, 304.500 290 C 304.160 289.450, 304.359 289, 304.941 289 C 305.523 289, 305.893 288.663, 305.762 288.250 C 305.361 286.985, 308.183 281, 309.180 281 C 309.696 281, 309.840 280.550, 309.500 280 C 309.160 279.450, 309.262 279, 309.727 279 C 310.191 279, 310.627 278.212, 310.695 277.250 C 310.764 276.288, 312.444 270.938, 314.429 265.361 C 318.849 252.948, 323.187 234.264, 326.121 215 C 327.825 203.807, 328.330 196.052, 328.333 181 C 328.338 160.009, 327.119 149.995, 322.315 131.543 C 320.877 126.019, 319.672 120.713, 319.636 119.750 C 319.601 118.787, 319.170 118, 318.679 118 C 318.188 118, 318.034 117.354, 318.337 116.565 C 318.640 115.775, 318.421 114.974, 317.852 114.784 C 317.282 114.594, 316.745 113.215, 316.658 111.720 C 316.571 110.225, 316.114 109.001, 315.643 109.001 C 315.172 109, 315.045 108.325, 315.362 107.500 C 315.678 106.675, 315.475 106, 314.910 106 C 314.344 106, 314.160 105.550, 314.500 105 C 314.840 104.450, 314.604 104, 313.976 104 C 313.347 104, 313.019 103.442, 313.247 102.759 C 313.475 102.076, 313.036 100.893, 312.273 100.130 C 311.510 99.367, 311.122 98.125, 311.411 97.371 C 311.700 96.617, 311.475 96, 310.910 96 C 310.344 96, 310.160 95.550, 310.500 95 C 310.840 94.450, 310.714 94, 310.220 94 C 308.999 94, 306.833 89.079, 307.546 87.925 C 307.861 87.416, 307.615 87, 307 87 C 306.385 87, 306.160 86.550, 306.500 86 C 306.840 85.450, 306.615 85, 306 85 C 305.385 85, 305.160 84.550, 305.500 84 C 305.840 83.450, 305.615 83, 305 83 C 304.385 83, 304.160 82.550, 304.500 82 C 304.840 81.450, 304.615 81, 304 81 C 303.385 81, 303.160 80.550, 303.500 80 C 303.840 79.450, 303.615 79, 303 79 C 302.385 79, 302.160 78.550, 302.500 78 C 302.840 77.450, 302.615 77, 302 77 C 301.385 77, 301.160 76.550, 301.500 76 C 301.840 75.450, 301.615 75, 301 75 C 300.385 75, 300.160 74.550, 300.500 74 C 300.840 73.450, 300.615 73, 300 73 C 299.385 73, 299.160 72.550, 299.500 72 C 299.840 71.450, 299.615 71, 299 71 C 298.385 71, 298.160 70.550, 298.500 70 C 298.840 69.450, 298.615 69, 298 69 C 297.385 69, 297.160 68.550, 297.500 68 C 297.840 67.450, 297.615 67, 297 67 C 296.385 67, 296.160 66.550, 296.500 66 C 296.840 65.450, 296.566 65, 295.892 65 C 295.218 65, 294.929 64.737, 295.250 64.417 C 295.571 64.096, 294.954 62.954, 293.880 61.880 C 292.806 60.806, 292.195 59.493, 292.523 58.964 C 292.850 58.434, 292.566 58, 291.892 58 C 291.218 58, 290.960 57.707, 291.318 57.349 C 291.676 56.991, 291.326 56.203, 290.539 55.599 C 289.753 54.994, 288.973 53.863, 288.805 53.083 C 288.637 52.304, 287.696 50.825, 286.714 49.797 C 285.731 48.768, 285.166 47.541, 285.458 47.068 C 285.750 46.596, 285.288 45.941, 284.431 45.612 C 283.574 45.283, 283.124 44.608, 283.431 44.112 C 283.738 43.616, 283.288 42.941, 282.431 42.612 C 281.574 42.283, 281.124 41.608, 281.431 41.112 C 281.738 40.616, 281.288 39.941, 280.431 39.612 C 279.574 39.283, 279.124 38.608, 279.431 38.112 C 279.738 37.616, 279.288 36.941, 278.431 36.612 C 277.574 36.283, 277.139 35.584, 277.465 35.057 C 277.790 34.531, 277.131 33.605, 276 33 C 274.869 32.395, 274.178 31.521, 274.463 31.059 C 274.749 30.597, 273.865 29.486, 272.498 28.590 C 271.131 27.695, 270.093 26.633, 270.191 26.231 C 270.420 25.297, 254.235 9.304, 252.315 8.567 C 251.522 8.263, 251.172 7.531, 251.537 6.940 C 251.938 6.291, 251.468 5.992, 250.350 6.183 C 249.309 6.361, 248.604 5.969, 248.738 5.286 C 248.885 4.537, 248.343 4.315, 247.324 4.706 C 246.216 5.131, 245.910 4.955, 246.395 4.170 C 246.793 3.526, 246.754 2.954, 246.309 2.899 C 245.864 2.843, 243.739 2.639, 241.588 2.445 C 239.436 2.251, 237.411 1.734, 237.088 1.295 C 236.764 0.856, 228.625 1.042, 219 1.709 M 233.750 52.723 C 235.537 52.945, 238.463 52.945, 240.250 52.723 C 242.037 52.502, 240.575 52.320, 237 52.320 C 233.425 52.320, 231.963 52.502, 233.750 52.723 M 161 81 C 159.075 82.054, 157.860 82.935, 158.300 82.958 C 159.359 83.014, 165 80.081, 165 79.474 C 165 78.820, 164.941 78.842, 161 81 M 159.750 123.662 C 160.438 123.940, 161.563 123.940, 162.250 123.662 C 162.938 123.385, 162.375 123.158, 161 123.158 C 159.625 123.158, 159.063 123.385, 159.750 123.662 M 236.500 133 C 237.495 134.100, 238.535 135, 238.810 135 C 239.085 135, 238.495 134.100, 237.500 133 C 236.505 131.900, 235.465 131, 235.190 131 C 234.915 131, 235.505 131.900, 236.500 133 M 246.523 147.500 C 249.635 152.450, 254.559 161.225, 257.465 167 C 266.205 184.369, 270.975 197.308, 279.953 228 L 280.977 231.500 280.398 227.510 C 279.655 222.384, 273.844 203.208, 269.335 191 C 263.140 174.227, 248.042 145.676, 242.366 140 C 241.541 139.175, 243.412 142.550, 246.523 147.500" stroke="none" fill="#e86722" fill-rule="evenodd"/></svg>